<?xml version="1.0" encoding="UTF-8" standalone="no"?>
<!-- Created with Inkscape (http://www.inkscape.org/) -->
<svg id="svg6181" xmlns:rdf="http://www.w3.org/1999/02/22-rdf-syntax-ns#" xmlns="http://www.w3.org/2000/svg" height="222.17mm" width="151.29mm" version="1.1" xmlns:cc="http://creativecommons.org/ns#" xmlns:dc="http://purl.org/dc/elements/1.1/" viewBox="0 0 536.0762 787.20706">
 <defs id="defs6183">
  <filter id="filter4225" style="color-interpolation-filters:sRGB">
   <feGaussianBlur id="feGaussianBlur4227" stdDeviation="2.09 1.83273" result="blur"/>
  </filter>
  <filter id="filter4274" style="color-interpolation-filters:sRGB">
   <feGaussianBlur id="feGaussianBlur4276" stdDeviation="2.09 1.83" result="blur"/>
  </filter>
 </defs>
 <metadata id="metadata6186">
  <rdf:RDF>
   <cc:Work rdf:about="">
    <dc:format>image/svg+xml</dc:format>
    <dc:type rdf:resource="http://purl.org/dc/dcmitype/StillImage"/>
    <dc:title/>
   </cc:Work>
  </rdf:RDF>
 </metadata>
 <g id="layer1" transform="translate(-103.39 -121.62)">
  <g id="g5615" fill-rule="evenodd" transform="translate(-105.08 97.544)">
   <rect id="rect4140" style="color-rendering:auto;color:#000000;isolation:auto;mix-blend-mode:normal;shape-rendering:auto;solid-color:#000000;image-rendering:auto" ry="41.53" height="657.14" width="448.57" y="87.081" x="249.18" fill="#f00"/>
   <rect id="rect4269" style="color-rendering:auto;color:#000000;isolation:auto;mix-blend-mode:normal;shape-rendering:auto;solid-color:#000000;image-rendering:auto" ry="41.53" height="657.14" width="448.57" y="93.471" x="256.52" fill="#00f"/>
   <rect id="rect4136" style="color-rendering:auto;color:#000000;isolation:auto;mix-blend-mode:normal;shape-rendering:auto;solid-color:#000000;image-rendering:auto" ry="41.53" height="657.14" width="448.57" y="90.378" x="253.22" fill="#fff"/>
  </g>
  <path id="rect4182" style="color-rendering:auto;color:#000000;isolation:auto;mix-blend-mode:normal;shape-rendering:auto;solid-color:#000000;image-rendering:auto" d="m188.29 186.79c-23.008 0-41.529 18.524-41.529 41.531v574.08c0 15.497 8.4092 28.948 20.926 36.086-9.0716-7.6064-14.824-19.029-14.824-31.848v-574.08c0-23.008 18.522-41.529 41.529-41.529h365.51c7.511 0 14.537 1.9838 20.604 5.4434-7.2105-6.0459-16.516-9.6836-26.705-9.6836h-365.51z" fill-rule="evenodd" filter="url(#filter4225)" fill="#fffb00"/>
  <path id="rect4267" style="color-rendering:auto;color:#000000;isolation:auto;mix-blend-mode:normal;shape-rendering:auto;solid-color:#000000;image-rendering:auto" d="m581.4 197.18c6.3479 7.2893 10.191 16.822 10.191 27.291v574.08c0 23.008-18.522 41.531-41.529 41.531h-365.51c-10.471 0-20.005-3.8455-27.295-10.195 7.6023 8.7284 18.799 14.236 31.336 14.236h365.51c23.008 0 41.529-18.524 41.529-41.531v-574.08c0-12.535-5.5064-23.73-14.232-31.332z" fill-rule="evenodd" filter="url(#filter4274)" fill="#0ff"/>
  <g id="g4941" fill="#0ff" transform="translate(-116.48 94.734)">
   <g id="g4943">
    <path id="path4945" fill="#0ff" d="m467.91 205.82v27.142h47.161v-10.009q0-6.6729 2.5249-9.4683 2.6151-2.8856 6.7631-2.8856 4.0578 0 6.5827 2.8856 2.615 2.7954 2.615 9.4683v28.495h-87.018q-6.6729 0-9.5585-2.5249-2.7954-2.615-2.7954-6.7631 0-4.0578 2.8856-6.5827 2.8856-2.615 9.4683-2.615h2.8856v-72.32h-2.8856q-6.6729 0-9.5585-2.5249-2.7954-2.615-2.7954-6.7631 0-4.148 2.7954-6.6729 2.8856-2.6151 9.5585-2.6151l82.96 0.0902v28.134q0 6.5827-2.5249 9.4683-2.5249 2.7954-6.6729 2.7954t-6.7631-2.7954q-2.5249-2.7954-2.5249-9.4683v-9.6486h-43.103v26.692h16.231q0-7.214 1.3526-9.288 2.7954-4.4185 7.9353-4.4185 4.0578 0 6.5827 2.8856 2.615 2.7954 2.615 9.4683v21.281q0 6.0417-1.4428 8.1157-2.8856 4.2382-7.755 4.2382-5.1399 0-7.9353-4.4185-1.3526-2.074-1.3526-9.3781h-16.231z"/>
   </g>
   <g id="g4947" transform="translate(-6.5477 -30.968)">
    <g id="g4949">
     <path id="path4951" fill="#0ff" d="m402.06 394.29v19.963h13.974q4.9242 0 6.987 1.9298 2.1294 1.8632 2.1294 4.9242 0 2.9944-2.1294 4.9242-2.0628 1.8632-6.987 1.8632h-29.745q-4.9242 0-7.0536-1.8632-2.0628-1.9298-2.0628-4.9907 0-2.9944 2.1294-4.8576 2.1294-1.9298 6.987-1.9298h2.1294v-53.368h-2.1294q-4.9242 0-7.0536-1.8632-2.0628-1.9298-2.0628-4.9907 0-3.061 2.0628-4.9242 2.1294-1.9298 7.0536-1.9298l64.214 0.0665v20.828q0 4.8577-1.9298 6.987-1.8632 2.0628-4.9242 2.0628-2.9944 0-4.9242-2.0628-1.8632-2.0628-1.8632-6.987v-7.1867h-34.802v19.763h11.978q0-5.3234 0.99815-6.8539 2.0628-3.2606 5.8558-3.2606 2.9944 0 4.8576 2.1294 1.9298 2.0628 1.9298 6.987v15.704q0 4.9242-1.9298 7.0536-1.8632 2.0628-4.9242 2.0628-3.7264 0-5.7893-3.2606-0.99815-1.5305-0.99815-6.9205h-11.978z"/>
    </g>
    <g id="g4953">
     <path id="path4955" fill="#0ff" d="m558.03 400.22v14.041h13.774q4.9242 0 6.987 1.9298 2.1294 1.8632 2.1294 4.9242 0 2.9944-2.1294 4.9242-2.0628 1.8632-6.987 1.8632h-29.545q-4.9242 0-7.0536-1.8632-2.0628-1.9298-2.0628-4.9907 0-2.9944 2.1294-4.8576 2.1294-1.9298 6.987-1.9298h2.1294v-53.368h-2.1294q-4.9242 0-7.0536-1.8632-2.0628-1.9298-2.0628-4.9907 0-3.061 2.0628-4.9242 2.1294-1.9298 7.0536-1.9298l31.408 0.0665q13.841 0 21.893 7.5859 8.1183 7.5194 8.1183 18.366 0 5.9889-2.7283 11.312-2.0628 3.9926-6.9205 7.9186-4.7911 3.8595-9.8484 5.8558-4.9907 1.9298-13.242 1.9298h-12.909zm0-13.641h12.643q8.9168 0 14.107-3.9926 5.2569-4.0591 5.2569-9.7153 0-4.7911-4.2588-8.3844-4.1922-3.5933-12.044-3.5933h-15.704v25.686z"/>
    </g>
   </g>
   <g id="g4957" transform="translate(7.9566 -12.785)">
    <g id="g4959">
     <path id="path4961" fill="#0ff" d="m359.83 465.58v36.197h6.2284q3.3398 0 4.739 1.3088 1.4442 1.2637 1.4442 3.3398 0 2.031-1.4442 3.3398-1.3991 1.2637-4.739 1.2637h-21.664q-3.3398 0-4.7841-1.2637-1.3991-1.3089-1.3991-3.385 0-2.031 1.3991-3.2947 1.4442-1.3088 4.7841-1.3088h6.1832v-36.197h-10.02v8.7558q0 3.3398-1.3089 4.7841-1.2637 1.3991-3.3398 1.3991-2.031 0-3.3398-1.3991-1.2637-1.4443-1.2637-4.7841v-18.053l47.931 0.0451v18.008q0 3.3398-1.3089 4.7841-1.2637 1.3991-3.3398 1.3991-2.031 0-3.3398-1.3991-1.2637-1.4443-1.2637-4.7841v-8.7558h-10.155z"/>
    </g>
    <g id="g4963">
     <path id="path4965" fill="#0ff" d="m504.76 483.68q0 12.321-7.8531 20.536-7.808 8.1691-18.098 8.1691-9.2523 0-16.699-6.8151-9.2071-8.4399-9.2071-21.89t9.2071-21.935q7.447-6.8151 16.699-6.8151 10.29 0 18.098 8.2142 7.8531 8.1691 7.8531 20.536zm-9.2523 0q0-8.4399-5.1-13.946-5.1-5.5514-11.599-5.5514-6.454 0-11.554 5.5514t-5.1 13.946q0 8.3948 5.1 13.946 5.1 5.5062 11.554 5.5062 6.4992 0 11.599-5.5062 5.1-5.5062 5.1-13.946z"/>
    </g>
    <g id="g4967">
     <path id="path4969" fill="#0ff" d="m590.25 501.78h20.987v-6.8602q0-3.3398 1.2637-4.739 1.3089-1.4443 3.385-1.4443t3.3398 1.4443q1.3089 1.3991 1.3089 4.739l-0.0451 16.112h-42.064v-9.2523l28.208-36.197h-17.06v6.6346q0 3.3398-1.2637 4.7841-1.2637 1.3991-3.3398 1.3991t-3.385-1.3991q-1.2637-1.4443-1.2637-4.7841v-15.932l38.273 0.0451v9.0266l-28.344 36.422z"/>
    </g>
   </g>
   <g id="g4971" transform="translate(3.8169 -14.806)">
    <g id="g4973">
     <path id="path4975" fill="#0ff" d="m317.37 560.92v29.37h16.187v-7.1045q0-2.71 1.0254-3.8452 1.062-1.1719 2.7466-1.1719 1.648 0 2.6733 1.1719 1.062 1.1352 1.062 3.8452v14.612h-35.559q-2.71 0-3.8818-1.0254-1.1352-1.062-1.1352-2.7466 0-1.648 1.1352-2.6733 1.1719-1.062 3.8818-1.062h4.3579v-29.37h-4.3579q-2.71 0-3.8818-1.0254-1.1352-1.062-1.1352-2.7466t1.1352-2.71q1.1719-1.062 3.8818-1.062l16.26 0.0366q2.71 0 3.8452 1.0254 1.1719 1.0254 1.1719 2.71t-1.1719 2.7466q-1.1352 1.0254-3.8452 1.0254h-4.3945z"/>
    </g>
    <g id="g4977">
     <path id="path4979" fill="#0ff" d="m421.1 582.56v7.727h7.5806q2.71 0 3.8452 1.062 1.1719 1.0254 1.1719 2.71 0 1.648-1.1719 2.71-1.1353 1.0254-3.8452 1.0254h-16.26q-2.71 0-3.8818-1.0254-1.1352-1.062-1.1352-2.7466 0-1.648 1.1719-2.6733 1.1719-1.062 3.8452-1.062h1.1719v-29.37h-1.1719q-2.71 0-3.8818-1.0254-1.1352-1.062-1.1352-2.7466t1.1352-2.71q1.1719-1.062 3.8818-1.062l17.285 0.0366q7.6172 0 12.048 4.1748 4.4678 4.1382 4.4678 10.107 0 3.2959-1.5015 6.2256-1.1352 2.1973-3.8086 4.3579-2.6367 2.124-5.4199 3.2226-2.7466 1.062-7.2876 1.062h-7.1045zm0-7.5073h6.958q4.9072 0 7.7637-2.1973 2.8931-2.2339 2.8931-5.3467 0-2.6367-2.3438-4.6142-2.3071-1.9775-6.6284-1.9775h-8.6426v14.136z"/>
    </g>
    <g id="g4981">
     <path id="path4983" fill="#0ff" d="m526.27 579.26v11.023h19.153v-4.0649q0-2.71 1.0254-3.8452 1.062-1.1719 2.7466-1.1719 1.648 0 2.6733 1.1719 1.062 1.1352 1.062 3.8452v11.572h-35.339q-2.71 0-3.8818-1.0254-1.1352-1.062-1.1352-2.7466 0-1.648 1.1719-2.6733 1.1719-1.062 3.8452-1.062h1.1719v-29.37h-1.1719q-2.71 0-3.8818-1.0254-1.1352-1.062-1.1352-2.7466t1.1352-2.71q1.1719-1.062 3.8818-1.062l33.691 0.0366v11.426q0 2.6733-1.0254 3.8452-1.0254 1.1352-2.71 1.1352t-2.7466-1.1352q-1.0254-1.1352-1.0254-3.8452v-3.9184h-17.505v10.84h6.5918q0-2.9297 0.54932-3.772 1.1352-1.7944 3.2227-1.7944 1.648 0 2.6733 1.1719 1.062 1.1352 1.062 3.8452v8.6426q0 2.4536-0.58594 3.2959-1.1719 1.7212-3.1494 1.7212-2.0874 0-3.2227-1.7944-0.54932-0.84229-0.54932-3.8086h-6.5918z"/>
    </g>
    <g id="g4985">
     <path id="path4987" fill="#0ff" d="m623.93 590.29v-29.37q-2.3804-0.0366-3.5156-1.062-1.1352-1.062-1.1352-2.71 0-1.6846 1.1352-2.71 1.1719-1.062 3.8818-1.062l15.71 0.0366q3.6621 0 7.1411 1.355 3.5156 1.355 5.6396 3.4424 1.6113 1.5747 3.3325 4.3213 1.7578 2.7466 2.6367 5.4565 0.8789 2.71 0.8789 6.6284v3.5889q0 4.7608-1.6113 8.4595-1.6113 3.6621-4.248 6.0059-2.6001 2.3071-4.9072 3.4058-3.6621 1.7212-9.4849 1.7212h-15.088q-2.71 0-3.8818-1.0254-1.1352-1.062-1.1352-2.7466 0-1.648 1.1352-2.71 1.1719-1.062 3.5156-1.0254zm7.5073 0h7.9834q4.4678 0 6.7383-1.2817 2.9663-1.6846 4.4678-4.2847t1.5015-6.7383v-3.5522q0-3.5522-1.355-6.2256-2.124-4.1748-4.7974-5.7129-2.6367-1.5747-6.6284-1.5747h-7.9102v29.37z"/>
    </g>
   </g>
   <g id="g4989" transform="translate(-3.2328 -10.765)">
    <g id="g4991">
     <path id="path4993" fill="#0ff" d="m306.06 683.57v7.727h7.5806q2.71 0 3.8452 1.062 1.1719 1.0254 1.1719 2.71 0 1.6479-1.1719 2.71-1.1353 1.0254-3.8452 1.0254h-16.26q-2.71 0-3.8818-1.0254-1.1352-1.062-1.1352-2.7466 0-1.648 1.1719-2.6733 1.1719-1.062 3.8452-1.062h1.1719v-29.37h-1.1719q-2.71 0-3.8818-1.0254-1.1352-1.062-1.1352-2.7466t1.1352-2.71q1.1719-1.062 3.8818-1.062l17.285 0.0366q7.6172 0 12.048 4.1748 4.4678 4.1382 4.4678 10.107 0 3.2959-1.5015 6.2256-1.1352 2.1973-3.8086 4.3579-2.6367 2.124-5.4199 3.2227-2.7466 1.062-7.2876 1.062h-7.1045zm0-7.5073h6.958q4.9072 0 7.7637-2.1973 2.8931-2.2339 2.8931-5.3467 0-2.6367-2.3438-4.6143-2.3071-1.9775-6.6284-1.9775h-8.6426v14.136z"/>
    </g>
    <g id="g4995">
     <path id="path4997" fill="#0ff" d="m392.24 680.28v11.023h19.153v-4.0649q0-2.71 1.0254-3.8452 1.062-1.1719 2.7466-1.1719 1.648 0 2.6733 1.1719 1.062 1.1352 1.062 3.8452v11.572h-35.339q-2.71 0-3.8818-1.0254-1.1352-1.062-1.1352-2.7466 0-1.648 1.1719-2.6733 1.1719-1.062 3.8452-1.062h1.1719v-29.37h-1.1719q-2.71 0-3.8818-1.0254-1.1352-1.062-1.1352-2.7466t1.1352-2.71q1.1719-1.062 3.8818-1.062l33.691 0.0366v11.426q0 2.6733-1.0254 3.8452-1.0254 1.1352-2.71 1.1352t-2.7466-1.1352q-1.0254-1.1353-1.0254-3.8452v-3.9184h-17.505v10.84h6.5918q0-2.9297 0.54932-3.772 1.1352-1.7944 3.2227-1.7944 1.6479 0 2.6733 1.1719 1.062 1.1352 1.062 3.8452v8.6426q0 2.4536-0.58594 3.2959-1.1719 1.7212-3.1494 1.7212-2.0874 0-3.2227-1.7944-0.54932-0.84229-0.54932-3.8086h-6.5918z"/>
    </g>
    <g id="g4999">
     <path id="path5001" fill="#0ff" d="m498.2 656.33q0.6958-0.95215 1.5015-1.4282 0.84229-0.47608 1.7944-0.47608 1.648 0 2.6733 1.1353 1.062 1.1352 1.062 3.8452v6.3721q0 2.71-1.062 3.8818-1.0254 1.1352-2.6733 1.1352-1.5015 0-2.417-0.84229-0.91552-0.84228-1.355-3.1494-0.25635-1.5381-1.0254-2.3804-1.5015-1.648-4.2114-2.6367-2.6733-0.98877-5.3833-0.98877-3.3691 0-6.189 1.4648-2.8198 1.4648-4.9805 4.7607-2.1606 3.2959-2.1606 7.8369v4.8706q0 5.4199 3.9184 9.0454 3.9551 3.6255 10.95 3.6255 4.1748 0 7.0679-1.1353 1.6846-0.65918 3.5889-2.6001 1.1719-1.1719 1.831-1.5015 0.65918-0.36621 1.5015-0.36621 1.5015 0 2.6367 1.1352 1.1352 1.1353 1.1352 2.6733 0 1.5381-1.5381 3.2959-2.2339 2.5635-5.7495 4.0283-4.7241 1.9775-10.437 1.9775-6.665 0-12.012-2.7466-4.3213-2.1973-7.3608-6.9214-3.0396-4.7607-3.0396-10.364v-5.0903q0-5.8594 2.71-10.913 2.7466-5.0903 7.5806-7.8369t10.254-2.7466q3.2593 0 6.0791 0.76904 2.8564 0.73242 5.3101 2.2705z"/>
    </g>
    <g id="g5003">
     <path id="path5005" fill="#0ff" d="m567.47 680.32v10.986h7.6904q2.71 0 3.8452 1.062 1.1719 1.0254 1.1719 2.71 0 1.6479-1.1719 2.71-1.1352 1.0254-3.8452 1.0254h-16.37q-2.71 0-3.8818-1.0254-1.1353-1.062-1.1353-2.7466 0-1.648 1.1719-2.6733 1.1719-1.062 3.8452-1.062h1.1719v-29.37h-1.1719q-2.71 0-3.8818-1.0254-1.1353-1.062-1.1353-2.7466t1.1353-2.71q1.1719-1.062 3.8818-1.062l35.339 0.0366v11.462q0 2.6733-1.062 3.8452-1.0254 1.1352-2.71 1.1352-1.648 0-2.71-1.1352-1.0254-1.1353-1.0254-3.8452v-3.9551h-19.153v10.876h6.5918q0-2.9297 0.54931-3.772 1.1353-1.7944 3.2227-1.7944 1.648 0 2.6733 1.1719 1.062 1.1352 1.062 3.8452v8.6426q0 2.71-1.062 3.8818-1.0254 1.1352-2.71 1.1352-2.0508 0-3.186-1.7944-0.54931-0.84229-0.54931-3.8086h-6.5918z"/>
    </g>
    <g id="g5007">
     <path id="path5009" fill="#0ff" d="m646.15 691.3v-29.37q-2.3804-0.0366-3.5156-1.062-1.1352-1.062-1.1352-2.71 0-1.6846 1.1352-2.71 1.1719-1.062 3.8818-1.062l15.71 0.0366q3.6621 0 7.1411 1.355 3.5156 1.355 5.6396 3.4424 1.6113 1.5747 3.3325 4.3213 1.7578 2.7466 2.6367 5.4566t0.8789 6.6284v3.5889q0 4.7607-1.6113 8.4595-1.6113 3.6621-4.248 6.0059-2.6001 2.3071-4.9072 3.4058-3.6621 1.7212-9.4849 1.7212h-15.088q-2.71 0-3.8818-1.0254-1.1352-1.062-1.1352-2.7466 0-1.648 1.1352-2.71 1.1719-1.062 3.5156-1.0254zm7.5073 0h7.9834q4.4678 0 6.7383-1.2817 2.9663-1.6846 4.4678-4.2847t1.5015-6.7383v-3.5522q0-3.5522-1.355-6.2256-2.124-4.1748-4.7974-5.7129-2.6367-1.5747-6.6284-1.5747h-7.9102v29.37z"/>
    </g>
   </g>
  </g>
  <g id="g4659" fill="#ff0" transform="translate(-106.76 107.48)">
   <g id="g4661">
    <path id="path4663" fill="#ff0" d="m467.91 205.82v27.142h47.161v-10.009q0-6.6729 2.5249-9.4683 2.6151-2.8856 6.7631-2.8856 4.0578 0 6.5827 2.8856 2.615 2.7954 2.615 9.4683v28.495h-87.018q-6.6729 0-9.5585-2.5249-2.7954-2.615-2.7954-6.7631 0-4.0578 2.8856-6.5827 2.8856-2.615 9.4683-2.615h2.8856v-72.32h-2.8856q-6.6729 0-9.5585-2.5249-2.7954-2.615-2.7954-6.7631 0-4.148 2.7954-6.6729 2.8856-2.6151 9.5585-2.6151l82.96 0.0902v28.134q0 6.5827-2.5249 9.4683-2.5249 2.7954-6.6729 2.7954t-6.7631-2.7954q-2.5249-2.7954-2.5249-9.4683v-9.6486h-43.103v26.692h16.231q0-7.214 1.3526-9.288 2.7954-4.4185 7.9353-4.4185 4.0578 0 6.5827 2.8856 2.615 2.7954 2.615 9.4683v21.281q0 6.0417-1.4428 8.1157-2.8856 4.2382-7.755 4.2382-5.1399 0-7.9353-4.4185-1.3526-2.074-1.3526-9.3781h-16.231z"/>
   </g>
   <g id="g4665" transform="translate(-6.5477 -30.968)">
    <g id="g4667">
     <path id="path4669" fill="#ff0" d="m402.06 394.29v19.963h13.974q4.9242 0 6.987 1.9298 2.1294 1.8632 2.1294 4.9242 0 2.9944-2.1294 4.9242-2.0628 1.8632-6.987 1.8632h-29.745q-4.9242 0-7.0536-1.8632-2.0628-1.9298-2.0628-4.9907 0-2.9944 2.1294-4.8576 2.1294-1.9298 6.987-1.9298h2.1294v-53.368h-2.1294q-4.9242 0-7.0536-1.8632-2.0628-1.9298-2.0628-4.9907 0-3.061 2.0628-4.9242 2.1294-1.9298 7.0536-1.9298l64.214 0.0665v20.828q0 4.8577-1.9298 6.987-1.8632 2.0628-4.9242 2.0628-2.9944 0-4.9242-2.0628-1.8632-2.0628-1.8632-6.987v-7.1867h-34.802v19.763h11.978q0-5.3234 0.99815-6.8539 2.0628-3.2606 5.8558-3.2606 2.9944 0 4.8576 2.1294 1.9298 2.0628 1.9298 6.987v15.704q0 4.9242-1.9298 7.0536-1.8632 2.0628-4.9242 2.0628-3.7264 0-5.7893-3.2606-0.99815-1.5305-0.99815-6.9205h-11.978z"/>
    </g>
    <g id="g4671">
     <path id="path4673" fill="#ff0" d="m558.03 400.22v14.041h13.774q4.9242 0 6.987 1.9298 2.1294 1.8632 2.1294 4.9242 0 2.9944-2.1294 4.9242-2.0628 1.8632-6.987 1.8632h-29.545q-4.9242 0-7.0536-1.8632-2.0628-1.9298-2.0628-4.9907 0-2.9944 2.1294-4.8576 2.1294-1.9298 6.987-1.9298h2.1294v-53.368h-2.1294q-4.9242 0-7.0536-1.8632-2.0628-1.9298-2.0628-4.9907 0-3.061 2.0628-4.9242 2.1294-1.9298 7.0536-1.9298l31.408 0.0665q13.841 0 21.893 7.5859 8.1183 7.5194 8.1183 18.366 0 5.9889-2.7283 11.312-2.0628 3.9926-6.9205 7.9186-4.7911 3.8595-9.8484 5.8558-4.9907 1.9298-13.242 1.9298h-12.909zm0-13.641h12.643q8.9168 0 14.107-3.9926 5.2569-4.0591 5.2569-9.7153 0-4.7911-4.2588-8.3844-4.1922-3.5933-12.044-3.5933h-15.704v25.686z"/>
    </g>
   </g>
   <g id="g4675" transform="translate(7.9566 -12.785)">
    <g id="g4677">
     <path id="path4679" fill="#ff0" d="m359.83 465.58v36.197h6.2284q3.3398 0 4.739 1.3088 1.4442 1.2637 1.4442 3.3398 0 2.031-1.4442 3.3398-1.3991 1.2637-4.739 1.2637h-21.664q-3.3398 0-4.7841-1.2637-1.3991-1.3089-1.3991-3.385 0-2.031 1.3991-3.2947 1.4442-1.3088 4.7841-1.3088h6.1832v-36.197h-10.02v8.7558q0 3.3398-1.3089 4.7841-1.2637 1.3991-3.3398 1.3991-2.031 0-3.3398-1.3991-1.2637-1.4443-1.2637-4.7841v-18.053l47.931 0.0451v18.008q0 3.3398-1.3089 4.7841-1.2637 1.3991-3.3398 1.3991-2.031 0-3.3398-1.3991-1.2637-1.4443-1.2637-4.7841v-8.7558h-10.155z"/>
    </g>
    <g id="g4681">
     <path id="path4683" fill="#ff0" d="m504.76 483.68q0 12.321-7.8531 20.536-7.808 8.1691-18.098 8.1691-9.2523 0-16.699-6.8151-9.2071-8.4399-9.2071-21.89t9.2071-21.935q7.447-6.8151 16.699-6.8151 10.29 0 18.098 8.2142 7.8531 8.1691 7.8531 20.536zm-9.2523 0q0-8.4399-5.1-13.946-5.1-5.5514-11.599-5.5514-6.454 0-11.554 5.5514t-5.1 13.946q0 8.3948 5.1 13.946 5.1 5.5062 11.554 5.5062 6.4992 0 11.599-5.5062 5.1-5.5062 5.1-13.946z"/>
    </g>
    <g id="g4685">
     <path id="path4687" fill="#ff0" d="m590.25 501.78h20.987v-6.8602q0-3.3398 1.2637-4.739 1.3089-1.4443 3.385-1.4443t3.3398 1.4443q1.3089 1.3991 1.3089 4.739l-0.0451 16.112h-42.064v-9.2523l28.208-36.197h-17.06v6.6346q0 3.3398-1.2637 4.7841-1.2637 1.3991-3.3398 1.3991t-3.385-1.3991q-1.2637-1.4443-1.2637-4.7841v-15.932l38.273 0.0451v9.0266l-28.344 36.422z"/>
    </g>
   </g>
   <g id="g4689" transform="translate(3.8169 -14.806)">
    <g id="g4691">
     <path id="path4693" fill="#ff0" d="m317.37 560.92v29.37h16.187v-7.1045q0-2.71 1.0254-3.8452 1.062-1.1719 2.7466-1.1719 1.648 0 2.6733 1.1719 1.062 1.1352 1.062 3.8452v14.612h-35.559q-2.71 0-3.8818-1.0254-1.1352-1.062-1.1352-2.7466 0-1.648 1.1352-2.6733 1.1719-1.062 3.8818-1.062h4.3579v-29.37h-4.3579q-2.71 0-3.8818-1.0254-1.1352-1.062-1.1352-2.7466t1.1352-2.71q1.1719-1.062 3.8818-1.062l16.26 0.0366q2.71 0 3.8452 1.0254 1.1719 1.0254 1.1719 2.71t-1.1719 2.7466q-1.1352 1.0254-3.8452 1.0254h-4.3945z"/>
    </g>
    <g id="g4695">
     <path id="path4697" fill="#ff0" d="m421.1 582.56v7.727h7.5806q2.71 0 3.8452 1.062 1.1719 1.0254 1.1719 2.71 0 1.648-1.1719 2.71-1.1353 1.0254-3.8452 1.0254h-16.26q-2.71 0-3.8818-1.0254-1.1352-1.062-1.1352-2.7466 0-1.648 1.1719-2.6733 1.1719-1.062 3.8452-1.062h1.1719v-29.37h-1.1719q-2.71 0-3.8818-1.0254-1.1352-1.062-1.1352-2.7466t1.1352-2.71q1.1719-1.062 3.8818-1.062l17.285 0.0366q7.6172 0 12.048 4.1748 4.4678 4.1382 4.4678 10.107 0 3.2959-1.5015 6.2256-1.1352 2.1973-3.8086 4.3579-2.6367 2.124-5.4199 3.2226-2.7466 1.062-7.2876 1.062h-7.1045zm0-7.5073h6.958q4.9072 0 7.7637-2.1973 2.8931-2.2339 2.8931-5.3467 0-2.6367-2.3438-4.6142-2.3071-1.9775-6.6284-1.9775h-8.6426v14.136z"/>
    </g>
    <g id="g4699">
     <path id="path4701" fill="#ff0" d="m526.27 579.26v11.023h19.153v-4.0649q0-2.71 1.0254-3.8452 1.062-1.1719 2.7466-1.1719 1.648 0 2.6733 1.1719 1.062 1.1352 1.062 3.8452v11.572h-35.339q-2.71 0-3.8818-1.0254-1.1352-1.062-1.1352-2.7466 0-1.648 1.1719-2.6733 1.1719-1.062 3.8452-1.062h1.1719v-29.37h-1.1719q-2.71 0-3.8818-1.0254-1.1352-1.062-1.1352-2.7466t1.1352-2.71q1.1719-1.062 3.8818-1.062l33.691 0.0366v11.426q0 2.6733-1.0254 3.8452-1.0254 1.1352-2.71 1.1352t-2.7466-1.1352q-1.0254-1.1352-1.0254-3.8452v-3.9184h-17.505v10.84h6.5918q0-2.9297 0.54932-3.772 1.1352-1.7944 3.2227-1.7944 1.648 0 2.6733 1.1719 1.062 1.1352 1.062 3.8452v8.6426q0 2.4536-0.58594 3.2959-1.1719 1.7212-3.1494 1.7212-2.0874 0-3.2227-1.7944-0.54932-0.84229-0.54932-3.8086h-6.5918z"/>
    </g>
    <g id="g4703">
     <path id="path4705" fill="#ff0" d="m623.93 590.29v-29.37q-2.3804-0.0366-3.5156-1.062-1.1352-1.062-1.1352-2.71 0-1.6846 1.1352-2.71 1.1719-1.062 3.8818-1.062l15.71 0.0366q3.6621 0 7.1411 1.355 3.5156 1.355 5.6396 3.4424 1.6113 1.5747 3.3325 4.3213 1.7578 2.7466 2.6367 5.4565 0.8789 2.71 0.8789 6.6284v3.5889q0 4.7608-1.6113 8.4595-1.6113 3.6621-4.248 6.0059-2.6001 2.3071-4.9072 3.4058-3.6621 1.7212-9.4849 1.7212h-15.088q-2.71 0-3.8818-1.0254-1.1352-1.062-1.1352-2.7466 0-1.648 1.1352-2.71 1.1719-1.062 3.5156-1.0254zm7.5073 0h7.9834q4.4678 0 6.7383-1.2817 2.9663-1.6846 4.4678-4.2847t1.5015-6.7383v-3.5522q0-3.5522-1.355-6.2256-2.124-4.1748-4.7974-5.7129-2.6367-1.5747-6.6284-1.5747h-7.9102v29.37z"/>
    </g>
   </g>
   <g id="g4707" transform="translate(-3.2328 -10.765)">
    <g id="g4709">
     <path id="path4711" fill="#ff0" d="m306.06 683.57v7.727h7.5806q2.71 0 3.8452 1.062 1.1719 1.0254 1.1719 2.71 0 1.6479-1.1719 2.71-1.1353 1.0254-3.8452 1.0254h-16.26q-2.71 0-3.8818-1.0254-1.1352-1.062-1.1352-2.7466 0-1.648 1.1719-2.6733 1.1719-1.062 3.8452-1.062h1.1719v-29.37h-1.1719q-2.71 0-3.8818-1.0254-1.1352-1.062-1.1352-2.7466t1.1352-2.71q1.1719-1.062 3.8818-1.062l17.285 0.0366q7.6172 0 12.048 4.1748 4.4678 4.1382 4.4678 10.107 0 3.2959-1.5015 6.2256-1.1352 2.1973-3.8086 4.3579-2.6367 2.124-5.4199 3.2227-2.7466 1.062-7.2876 1.062h-7.1045zm0-7.5073h6.958q4.9072 0 7.7637-2.1973 2.8931-2.2339 2.8931-5.3467 0-2.6367-2.3438-4.6143-2.3071-1.9775-6.6284-1.9775h-8.6426v14.136z"/>
    </g>
    <g id="g4713">
     <path id="path4715" fill="#ff0" d="m392.24 680.28v11.023h19.153v-4.0649q0-2.71 1.0254-3.8452 1.062-1.1719 2.7466-1.1719 1.648 0 2.6733 1.1719 1.062 1.1352 1.062 3.8452v11.572h-35.339q-2.71 0-3.8818-1.0254-1.1352-1.062-1.1352-2.7466 0-1.648 1.1719-2.6733 1.1719-1.062 3.8452-1.062h1.1719v-29.37h-1.1719q-2.71 0-3.8818-1.0254-1.1352-1.062-1.1352-2.7466t1.1352-2.71q1.1719-1.062 3.8818-1.062l33.691 0.0366v11.426q0 2.6733-1.0254 3.8452-1.0254 1.1352-2.71 1.1352t-2.7466-1.1352q-1.0254-1.1353-1.0254-3.8452v-3.9184h-17.505v10.84h6.5918q0-2.9297 0.54932-3.772 1.1352-1.7944 3.2227-1.7944 1.6479 0 2.6733 1.1719 1.062 1.1352 1.062 3.8452v8.6426q0 2.4536-0.58594 3.2959-1.1719 1.7212-3.1494 1.7212-2.0874 0-3.2227-1.7944-0.54932-0.84229-0.54932-3.8086h-6.5918z"/>
    </g>
    <g id="g4717">
     <path id="path4719" fill="#ff0" d="m498.2 656.33q0.6958-0.95215 1.5015-1.4282 0.84229-0.47608 1.7944-0.47608 1.648 0 2.6733 1.1353 1.062 1.1352 1.062 3.8452v6.3721q0 2.71-1.062 3.8818-1.0254 1.1352-2.6733 1.1352-1.5015 0-2.417-0.84229-0.91552-0.84228-1.355-3.1494-0.25635-1.5381-1.0254-2.3804-1.5015-1.648-4.2114-2.6367-2.6733-0.98877-5.3833-0.98877-3.3691 0-6.189 1.4648-2.8198 1.4648-4.9805 4.7607-2.1606 3.2959-2.1606 7.8369v4.8706q0 5.4199 3.9184 9.0454 3.9551 3.6255 10.95 3.6255 4.1748 0 7.0679-1.1353 1.6846-0.65918 3.5889-2.6001 1.1719-1.1719 1.831-1.5015 0.65918-0.36621 1.5015-0.36621 1.5015 0 2.6367 1.1352 1.1352 1.1353 1.1352 2.6733 0 1.5381-1.5381 3.2959-2.2339 2.5635-5.7495 4.0283-4.7241 1.9775-10.437 1.9775-6.665 0-12.012-2.7466-4.3213-2.1973-7.3608-6.9214-3.0396-4.7607-3.0396-10.364v-5.0903q0-5.8594 2.71-10.913 2.7466-5.0903 7.5806-7.8369t10.254-2.7466q3.2593 0 6.0791 0.76904 2.8564 0.73242 5.3101 2.2705z"/>
    </g>
    <g id="g4721">
     <path id="path4723" fill="#ff0" d="m567.47 680.32v10.986h7.6904q2.71 0 3.8452 1.062 1.1719 1.0254 1.1719 2.71 0 1.6479-1.1719 2.71-1.1352 1.0254-3.8452 1.0254h-16.37q-2.71 0-3.8818-1.0254-1.1353-1.062-1.1353-2.7466 0-1.648 1.1719-2.6733 1.1719-1.062 3.8452-1.062h1.1719v-29.37h-1.1719q-2.71 0-3.8818-1.0254-1.1353-1.062-1.1353-2.7466t1.1353-2.71q1.1719-1.062 3.8818-1.062l35.339 0.0366v11.462q0 2.6733-1.062 3.8452-1.0254 1.1352-2.71 1.1352-1.648 0-2.71-1.1352-1.0254-1.1353-1.0254-3.8452v-3.9551h-19.153v10.876h6.5918q0-2.9297 0.54931-3.772 1.1353-1.7944 3.2227-1.7944 1.648 0 2.6733 1.1719 1.062 1.1352 1.062 3.8452v8.6426q0 2.71-1.062 3.8818-1.0254 1.1352-2.71 1.1352-2.0508 0-3.186-1.7944-0.54931-0.84229-0.54931-3.8086h-6.5918z"/>
    </g>
    <g id="g4725">
     <path id="path4727" fill="#ff0" d="m646.15 691.3v-29.37q-2.3804-0.0366-3.5156-1.062-1.1352-1.062-1.1352-2.71 0-1.6846 1.1352-2.71 1.1719-1.062 3.8818-1.062l15.71 0.0366q3.6621 0 7.1411 1.355 3.5156 1.355 5.6396 3.4424 1.6113 1.5747 3.3325 4.3213 1.7578 2.7466 2.6367 5.4566t0.8789 6.6284v3.5889q0 4.7607-1.6113 8.4595-1.6113 3.6621-4.248 6.0059-2.6001 2.3071-4.9072 3.4058-3.6621 1.7212-9.4849 1.7212h-15.088q-2.71 0-3.8818-1.0254-1.1352-1.062-1.1352-2.7466 0-1.648 1.1352-2.71 1.1719-1.062 3.5156-1.0254zm7.5073 0h7.9834q4.4678 0 6.7383-1.2817 2.9663-1.6846 4.4678-4.2847t1.5015-6.7383v-3.5522q0-3.5522-1.355-6.2256-2.124-4.1748-4.7974-5.7129-2.6367-1.5747-6.6284-1.5747h-7.9102v29.37z"/>
    </g>
   </g>
  </g>
  <g id="g4766" fill="#f00" transform="translate(-110.26 102.84)">
   <g id="g4768">
    <path id="path4770" fill="#f00" d="m467.91 205.82v27.142h47.161v-10.009q0-6.6729 2.5249-9.4683 2.6151-2.8856 6.7631-2.8856 4.0578 0 6.5827 2.8856 2.615 2.7954 2.615 9.4683v28.495h-87.018q-6.6729 0-9.5585-2.5249-2.7954-2.615-2.7954-6.7631 0-4.0578 2.8856-6.5827 2.8856-2.615 9.4683-2.615h2.8856v-72.32h-2.8856q-6.6729 0-9.5585-2.5249-2.7954-2.615-2.7954-6.7631 0-4.148 2.7954-6.6729 2.8856-2.6151 9.5585-2.6151l82.96 0.0902v28.134q0 6.5827-2.5249 9.4683-2.5249 2.7954-6.6729 2.7954t-6.7631-2.7954q-2.5249-2.7954-2.5249-9.4683v-9.6486h-43.103v26.692h16.231q0-7.214 1.3526-9.288 2.7954-4.4185 7.9353-4.4185 4.0578 0 6.5827 2.8856 2.615 2.7954 2.615 9.4683v21.281q0 6.0417-1.4428 8.1157-2.8856 4.2382-7.755 4.2382-5.1399 0-7.9353-4.4185-1.3526-2.074-1.3526-9.3781h-16.231z"/>
   </g>
   <g id="g4772" transform="translate(-6.5477 -30.968)">
    <g id="g4774">
     <path id="path4776" fill="#f00" d="m402.06 394.29v19.963h13.974q4.9242 0 6.987 1.9298 2.1294 1.8632 2.1294 4.9242 0 2.9944-2.1294 4.9242-2.0628 1.8632-6.987 1.8632h-29.745q-4.9242 0-7.0536-1.8632-2.0628-1.9298-2.0628-4.9907 0-2.9944 2.1294-4.8576 2.1294-1.9298 6.987-1.9298h2.1294v-53.368h-2.1294q-4.9242 0-7.0536-1.8632-2.0628-1.9298-2.0628-4.9907 0-3.061 2.0628-4.9242 2.1294-1.9298 7.0536-1.9298l64.214 0.0665v20.828q0 4.8577-1.9298 6.987-1.8632 2.0628-4.9242 2.0628-2.9944 0-4.9242-2.0628-1.8632-2.0628-1.8632-6.987v-7.1867h-34.802v19.763h11.978q0-5.3234 0.99815-6.8539 2.0628-3.2606 5.8558-3.2606 2.9944 0 4.8576 2.1294 1.9298 2.0628 1.9298 6.987v15.704q0 4.9242-1.9298 7.0536-1.8632 2.0628-4.9242 2.0628-3.7264 0-5.7893-3.2606-0.99815-1.5305-0.99815-6.9205h-11.978z"/>
    </g>
    <g id="g4778">
     <path id="path4780" fill="#f00" d="m558.03 400.22v14.041h13.774q4.9242 0 6.987 1.9298 2.1294 1.8632 2.1294 4.9242 0 2.9944-2.1294 4.9242-2.0628 1.8632-6.987 1.8632h-29.545q-4.9242 0-7.0536-1.8632-2.0628-1.9298-2.0628-4.9907 0-2.9944 2.1294-4.8576 2.1294-1.9298 6.987-1.9298h2.1294v-53.368h-2.1294q-4.9242 0-7.0536-1.8632-2.0628-1.9298-2.0628-4.9907 0-3.061 2.0628-4.9242 2.1294-1.9298 7.0536-1.9298l31.408 0.0665q13.841 0 21.893 7.5859 8.1183 7.5194 8.1183 18.366 0 5.9889-2.7283 11.312-2.0628 3.9926-6.9205 7.9186-4.7911 3.8595-9.8484 5.8558-4.9907 1.9298-13.242 1.9298h-12.909zm0-13.641h12.643q8.9168 0 14.107-3.9926 5.2569-4.0591 5.2569-9.7153 0-4.7911-4.2588-8.3844-4.1922-3.5933-12.044-3.5933h-15.704v25.686z"/>
    </g>
   </g>
   <g id="g4782" transform="translate(7.9566 -12.785)">
    <g id="g4784">
     <path id="path4786" fill="#f00" d="m359.83 465.58v36.197h6.2284q3.3398 0 4.739 1.3088 1.4442 1.2637 1.4442 3.3398 0 2.031-1.4442 3.3398-1.3991 1.2637-4.739 1.2637h-21.664q-3.3398 0-4.7841-1.2637-1.3991-1.3089-1.3991-3.385 0-2.031 1.3991-3.2947 1.4442-1.3088 4.7841-1.3088h6.1832v-36.197h-10.02v8.7558q0 3.3398-1.3089 4.7841-1.2637 1.3991-3.3398 1.3991-2.031 0-3.3398-1.3991-1.2637-1.4443-1.2637-4.7841v-18.053l47.931 0.0451v18.008q0 3.3398-1.3089 4.7841-1.2637 1.3991-3.3398 1.3991-2.031 0-3.3398-1.3991-1.2637-1.4443-1.2637-4.7841v-8.7558h-10.155z"/>
    </g>
    <g id="g4788">
     <path id="path4790" fill="#f00" d="m504.76 483.68q0 12.321-7.8531 20.536-7.808 8.1691-18.098 8.1691-9.2523 0-16.699-6.8151-9.2071-8.4399-9.2071-21.89t9.2071-21.935q7.447-6.8151 16.699-6.8151 10.29 0 18.098 8.2142 7.8531 8.1691 7.8531 20.536zm-9.2523 0q0-8.4399-5.1-13.946-5.1-5.5514-11.599-5.5514-6.454 0-11.554 5.5514t-5.1 13.946q0 8.3948 5.1 13.946 5.1 5.5062 11.554 5.5062 6.4992 0 11.599-5.5062 5.1-5.5062 5.1-13.946z"/>
    </g>
    <g id="g4792">
     <path id="path4794" fill="#f00" d="m590.25 501.78h20.987v-6.8602q0-3.3398 1.2637-4.739 1.3089-1.4443 3.385-1.4443t3.3398 1.4443q1.3089 1.3991 1.3089 4.739l-0.0451 16.112h-42.064v-9.2523l28.208-36.197h-17.06v6.6346q0 3.3398-1.2637 4.7841-1.2637 1.3991-3.3398 1.3991t-3.385-1.3991q-1.2637-1.4443-1.2637-4.7841v-15.932l38.273 0.0451v9.0266l-28.344 36.422z"/>
    </g>
   </g>
   <g id="g4796" transform="translate(3.8169 -14.806)">
    <g id="g4798">
     <path id="path4800" fill="#f00" d="m317.37 560.92v29.37h16.187v-7.1045q0-2.71 1.0254-3.8452 1.062-1.1719 2.7466-1.1719 1.648 0 2.6733 1.1719 1.062 1.1352 1.062 3.8452v14.612h-35.559q-2.71 0-3.8818-1.0254-1.1352-1.062-1.1352-2.7466 0-1.648 1.1352-2.6733 1.1719-1.062 3.8818-1.062h4.3579v-29.37h-4.3579q-2.71 0-3.8818-1.0254-1.1352-1.062-1.1352-2.7466t1.1352-2.71q1.1719-1.062 3.8818-1.062l16.26 0.0366q2.71 0 3.8452 1.0254 1.1719 1.0254 1.1719 2.71t-1.1719 2.7466q-1.1352 1.0254-3.8452 1.0254h-4.3945z"/>
    </g>
    <g id="g4802">
     <path id="path4804" fill="#f00" d="m421.1 582.56v7.727h7.5806q2.71 0 3.8452 1.062 1.1719 1.0254 1.1719 2.71 0 1.648-1.1719 2.71-1.1353 1.0254-3.8452 1.0254h-16.26q-2.71 0-3.8818-1.0254-1.1352-1.062-1.1352-2.7466 0-1.648 1.1719-2.6733 1.1719-1.062 3.8452-1.062h1.1719v-29.37h-1.1719q-2.71 0-3.8818-1.0254-1.1352-1.062-1.1352-2.7466t1.1352-2.71q1.1719-1.062 3.8818-1.062l17.285 0.0366q7.6172 0 12.048 4.1748 4.4678 4.1382 4.4678 10.107 0 3.2959-1.5015 6.2256-1.1352 2.1973-3.8086 4.3579-2.6367 2.124-5.4199 3.2226-2.7466 1.062-7.2876 1.062h-7.1045zm0-7.5073h6.958q4.9072 0 7.7637-2.1973 2.8931-2.2339 2.8931-5.3467 0-2.6367-2.3438-4.6142-2.3071-1.9775-6.6284-1.9775h-8.6426v14.136z"/>
    </g>
    <g id="g4806">
     <path id="path4808" fill="#f00" d="m526.27 579.26v11.023h19.153v-4.0649q0-2.71 1.0254-3.8452 1.062-1.1719 2.7466-1.1719 1.648 0 2.6733 1.1719 1.062 1.1352 1.062 3.8452v11.572h-35.339q-2.71 0-3.8818-1.0254-1.1352-1.062-1.1352-2.7466 0-1.648 1.1719-2.6733 1.1719-1.062 3.8452-1.062h1.1719v-29.37h-1.1719q-2.71 0-3.8818-1.0254-1.1352-1.062-1.1352-2.7466t1.1352-2.71q1.1719-1.062 3.8818-1.062l33.691 0.0366v11.426q0 2.6733-1.0254 3.8452-1.0254 1.1352-2.71 1.1352t-2.7466-1.1352q-1.0254-1.1352-1.0254-3.8452v-3.9184h-17.505v10.84h6.5918q0-2.9297 0.54932-3.772 1.1352-1.7944 3.2227-1.7944 1.648 0 2.6733 1.1719 1.062 1.1352 1.062 3.8452v8.6426q0 2.4536-0.58594 3.2959-1.1719 1.7212-3.1494 1.7212-2.0874 0-3.2227-1.7944-0.54932-0.84229-0.54932-3.8086h-6.5918z"/>
    </g>
    <g id="g4810">
     <path id="path4812" fill="#f00" d="m623.93 590.29v-29.37q-2.3804-0.0366-3.5156-1.062-1.1352-1.062-1.1352-2.71 0-1.6846 1.1352-2.71 1.1719-1.062 3.8818-1.062l15.71 0.0366q3.6621 0 7.1411 1.355 3.5156 1.355 5.6396 3.4424 1.6113 1.5747 3.3325 4.3213 1.7578 2.7466 2.6367 5.4565 0.8789 2.71 0.8789 6.6284v3.5889q0 4.7608-1.6113 8.4595-1.6113 3.6621-4.248 6.0059-2.6001 2.3071-4.9072 3.4058-3.6621 1.7212-9.4849 1.7212h-15.088q-2.71 0-3.8818-1.0254-1.1352-1.062-1.1352-2.7466 0-1.648 1.1352-2.71 1.1719-1.062 3.5156-1.0254zm7.5073 0h7.9834q4.4678 0 6.7383-1.2817 2.9663-1.6846 4.4678-4.2847t1.5015-6.7383v-3.5522q0-3.5522-1.355-6.2256-2.124-4.1748-4.7974-5.7129-2.6367-1.5747-6.6284-1.5747h-7.9102v29.37z"/>
    </g>
   </g>
   <g id="g4814" transform="translate(-3.2328 -10.765)">
    <g id="g4816">
     <path id="path4818" fill="#f00" d="m306.06 683.57v7.727h7.5806q2.71 0 3.8452 1.062 1.1719 1.0254 1.1719 2.71 0 1.6479-1.1719 2.71-1.1353 1.0254-3.8452 1.0254h-16.26q-2.71 0-3.8818-1.0254-1.1352-1.062-1.1352-2.7466 0-1.648 1.1719-2.6733 1.1719-1.062 3.8452-1.062h1.1719v-29.37h-1.1719q-2.71 0-3.8818-1.0254-1.1352-1.062-1.1352-2.7466t1.1352-2.71q1.1719-1.062 3.8818-1.062l17.285 0.0366q7.6172 0 12.048 4.1748 4.4678 4.1382 4.4678 10.107 0 3.2959-1.5015 6.2256-1.1352 2.1973-3.8086 4.3579-2.6367 2.124-5.4199 3.2227-2.7466 1.062-7.2876 1.062h-7.1045zm0-7.5073h6.958q4.9072 0 7.7637-2.1973 2.8931-2.2339 2.8931-5.3467 0-2.6367-2.3438-4.6143-2.3071-1.9775-6.6284-1.9775h-8.6426v14.136z"/>
    </g>
    <g id="g4820">
     <path id="path4822" fill="#f00" d="m392.24 680.28v11.023h19.153v-4.0649q0-2.71 1.0254-3.8452 1.062-1.1719 2.7466-1.1719 1.648 0 2.6733 1.1719 1.062 1.1352 1.062 3.8452v11.572h-35.339q-2.71 0-3.8818-1.0254-1.1352-1.062-1.1352-2.7466 0-1.648 1.1719-2.6733 1.1719-1.062 3.8452-1.062h1.1719v-29.37h-1.1719q-2.71 0-3.8818-1.0254-1.1352-1.062-1.1352-2.7466t1.1352-2.71q1.1719-1.062 3.8818-1.062l33.691 0.0366v11.426q0 2.6733-1.0254 3.8452-1.0254 1.1352-2.71 1.1352t-2.7466-1.1352q-1.0254-1.1353-1.0254-3.8452v-3.9184h-17.505v10.84h6.5918q0-2.9297 0.54932-3.772 1.1352-1.7944 3.2227-1.7944 1.6479 0 2.6733 1.1719 1.062 1.1352 1.062 3.8452v8.6426q0 2.4536-0.58594 3.2959-1.1719 1.7212-3.1494 1.7212-2.0874 0-3.2227-1.7944-0.54932-0.84229-0.54932-3.8086h-6.5918z"/>
    </g>
    <g id="g4824">
     <path id="path4826" fill="#f00" d="m498.2 656.33q0.6958-0.95215 1.5015-1.4282 0.84229-0.47608 1.7944-0.47608 1.648 0 2.6733 1.1353 1.062 1.1352 1.062 3.8452v6.3721q0 2.71-1.062 3.8818-1.0254 1.1352-2.6733 1.1352-1.5015 0-2.417-0.84229-0.91552-0.84228-1.355-3.1494-0.25635-1.5381-1.0254-2.3804-1.5015-1.648-4.2114-2.6367-2.6733-0.98877-5.3833-0.98877-3.3691 0-6.189 1.4648-2.8198 1.4648-4.9805 4.7607-2.1606 3.2959-2.1606 7.8369v4.8706q0 5.4199 3.9184 9.0454 3.9551 3.6255 10.95 3.6255 4.1748 0 7.0679-1.1353 1.6846-0.65918 3.5889-2.6001 1.1719-1.1719 1.831-1.5015 0.65918-0.36621 1.5015-0.36621 1.5015 0 2.6367 1.1352 1.1352 1.1353 1.1352 2.6733 0 1.5381-1.5381 3.2959-2.2339 2.5635-5.7495 4.0283-4.7241 1.9775-10.437 1.9775-6.665 0-12.012-2.7466-4.3213-2.1973-7.3608-6.9214-3.0396-4.7607-3.0396-10.364v-5.0903q0-5.8594 2.71-10.913 2.7466-5.0903 7.5806-7.8369t10.254-2.7466q3.2593 0 6.0791 0.76904 2.8564 0.73242 5.3101 2.2705z"/>
    </g>
    <g id="g4828">
     <path id="path4830" fill="#f00" d="m567.47 680.32v10.986h7.6904q2.71 0 3.8452 1.062 1.1719 1.0254 1.1719 2.71 0 1.6479-1.1719 2.71-1.1352 1.0254-3.8452 1.0254h-16.37q-2.71 0-3.8818-1.0254-1.1353-1.062-1.1353-2.7466 0-1.648 1.1719-2.6733 1.1719-1.062 3.8452-1.062h1.1719v-29.37h-1.1719q-2.71 0-3.8818-1.0254-1.1353-1.062-1.1353-2.7466t1.1353-2.71q1.1719-1.062 3.8818-1.062l35.339 0.0366v11.462q0 2.6733-1.062 3.8452-1.0254 1.1352-2.71 1.1352-1.648 0-2.71-1.1352-1.0254-1.1353-1.0254-3.8452v-3.9551h-19.153v10.876h6.5918q0-2.9297 0.54931-3.772 1.1353-1.7944 3.2227-1.7944 1.648 0 2.6733 1.1719 1.062 1.1352 1.062 3.8452v8.6426q0 2.71-1.062 3.8818-1.0254 1.1352-2.71 1.1352-2.0508 0-3.186-1.7944-0.54931-0.84229-0.54931-3.8086h-6.5918z"/>
    </g>
    <g id="g4832">
     <path id="path4834" fill="#f00" d="m646.15 691.3v-29.37q-2.3804-0.0366-3.5156-1.062-1.1352-1.062-1.1352-2.71 0-1.6846 1.1352-2.71 1.1719-1.062 3.8818-1.062l15.71 0.0366q3.6621 0 7.1411 1.355 3.5156 1.355 5.6396 3.4424 1.6113 1.5747 3.3325 4.3213 1.7578 2.7466 2.6367 5.4566t0.8789 6.6284v3.5889q0 4.7607-1.6113 8.4595-1.6113 3.6621-4.248 6.0059-2.6001 2.3071-4.9072 3.4058-3.6621 1.7212-9.4849 1.7212h-15.088q-2.71 0-3.8818-1.0254-1.1352-1.062-1.1352-2.7466 0-1.648 1.1352-2.71 1.1719-1.062 3.5156-1.0254zm7.5073 0h7.9834q4.4678 0 6.7383-1.2817 2.9663-1.6846 4.4678-4.2847t1.5015-6.7383v-3.5522q0-3.5522-1.355-6.2256-2.124-4.1748-4.7974-5.7129-2.6367-1.5747-6.6284-1.5747h-7.9102v29.37z"/>
    </g>
   </g>
  </g>
  <g id="g5011" fill="#00f" transform="translate(-114.7 96.977)">
   <g id="g5013">
    <path id="path5015" fill="#00f" d="m467.91 205.82v27.142h47.161v-10.009q0-6.6729 2.5249-9.4683 2.6151-2.8856 6.7631-2.8856 4.0578 0 6.5827 2.8856 2.615 2.7954 2.615 9.4683v28.495h-87.018q-6.6729 0-9.5585-2.5249-2.7954-2.615-2.7954-6.7631 0-4.0578 2.8856-6.5827 2.8856-2.615 9.4683-2.615h2.8856v-72.32h-2.8856q-6.6729 0-9.5585-2.5249-2.7954-2.615-2.7954-6.7631 0-4.148 2.7954-6.6729 2.8856-2.6151 9.5585-2.6151l82.96 0.0902v28.134q0 6.5827-2.5249 9.4683-2.5249 2.7954-6.6729 2.7954t-6.7631-2.7954q-2.5249-2.7954-2.5249-9.4683v-9.6486h-43.103v26.692h16.231q0-7.214 1.3526-9.288 2.7954-4.4185 7.9353-4.4185 4.0578 0 6.5827 2.8856 2.615 2.7954 2.615 9.4683v21.281q0 6.0417-1.4428 8.1157-2.8856 4.2382-7.755 4.2382-5.1399 0-7.9353-4.4185-1.3526-2.074-1.3526-9.3781h-16.231z"/>
   </g>
   <g id="g5017" transform="translate(-6.5477 -30.968)">
    <g id="g5019">
     <path id="path5021" fill="#00f" d="m402.06 394.29v19.963h13.974q4.9242 0 6.987 1.9298 2.1294 1.8632 2.1294 4.9242 0 2.9944-2.1294 4.9242-2.0628 1.8632-6.987 1.8632h-29.745q-4.9242 0-7.0536-1.8632-2.0628-1.9298-2.0628-4.9907 0-2.9944 2.1294-4.8576 2.1294-1.9298 6.987-1.9298h2.1294v-53.368h-2.1294q-4.9242 0-7.0536-1.8632-2.0628-1.9298-2.0628-4.9907 0-3.061 2.0628-4.9242 2.1294-1.9298 7.0536-1.9298l64.214 0.0665v20.828q0 4.8577-1.9298 6.987-1.8632 2.0628-4.9242 2.0628-2.9944 0-4.9242-2.0628-1.8632-2.0628-1.8632-6.987v-7.1867h-34.802v19.763h11.978q0-5.3234 0.99815-6.8539 2.0628-3.2606 5.8558-3.2606 2.9944 0 4.8576 2.1294 1.9298 2.0628 1.9298 6.987v15.704q0 4.9242-1.9298 7.0536-1.8632 2.0628-4.9242 2.0628-3.7264 0-5.7893-3.2606-0.99815-1.5305-0.99815-6.9205h-11.978z"/>
    </g>
    <g id="g5023">
     <path id="path5025" fill="#00f" d="m558.03 400.22v14.041h13.774q4.9242 0 6.987 1.9298 2.1294 1.8632 2.1294 4.9242 0 2.9944-2.1294 4.9242-2.0628 1.8632-6.987 1.8632h-29.545q-4.9242 0-7.0536-1.8632-2.0628-1.9298-2.0628-4.9907 0-2.9944 2.1294-4.8576 2.1294-1.9298 6.987-1.9298h2.1294v-53.368h-2.1294q-4.9242 0-7.0536-1.8632-2.0628-1.9298-2.0628-4.9907 0-3.061 2.0628-4.9242 2.1294-1.9298 7.0536-1.9298l31.408 0.0665q13.841 0 21.893 7.5859 8.1183 7.5194 8.1183 18.366 0 5.9889-2.7283 11.312-2.0628 3.9926-6.9205 7.9186-4.7911 3.8595-9.8484 5.8558-4.9907 1.9298-13.242 1.9298h-12.909zm0-13.641h12.643q8.9168 0 14.107-3.9926 5.2569-4.0591 5.2569-9.7153 0-4.7911-4.2588-8.3844-4.1922-3.5933-12.044-3.5933h-15.704v25.686z"/>
    </g>
   </g>
   <g id="g5027" transform="translate(7.9566 -12.785)">
    <g id="g5029">
     <path id="path5031" fill="#00f" d="m359.83 465.58v36.197h6.2284q3.3398 0 4.739 1.3088 1.4442 1.2637 1.4442 3.3398 0 2.031-1.4442 3.3398-1.3991 1.2637-4.739 1.2637h-21.664q-3.3398 0-4.7841-1.2637-1.3991-1.3089-1.3991-3.385 0-2.031 1.3991-3.2947 1.4442-1.3088 4.7841-1.3088h6.1832v-36.197h-10.02v8.7558q0 3.3398-1.3089 4.7841-1.2637 1.3991-3.3398 1.3991-2.031 0-3.3398-1.3991-1.2637-1.4443-1.2637-4.7841v-18.053l47.931 0.0451v18.008q0 3.3398-1.3089 4.7841-1.2637 1.3991-3.3398 1.3991-2.031 0-3.3398-1.3991-1.2637-1.4443-1.2637-4.7841v-8.7558h-10.155z"/>
    </g>
    <g id="g5033">
     <path id="path5035" fill="#00f" d="m504.76 483.68q0 12.321-7.8531 20.536-7.808 8.1691-18.098 8.1691-9.2523 0-16.699-6.8151-9.2071-8.4399-9.2071-21.89t9.2071-21.935q7.447-6.8151 16.699-6.8151 10.29 0 18.098 8.2142 7.8531 8.1691 7.8531 20.536zm-9.2523 0q0-8.4399-5.1-13.946-5.1-5.5514-11.599-5.5514-6.454 0-11.554 5.5514t-5.1 13.946q0 8.3948 5.1 13.946 5.1 5.5062 11.554 5.5062 6.4992 0 11.599-5.5062 5.1-5.5062 5.1-13.946z"/>
    </g>
    <g id="g5037">
     <path id="path5039" fill="#00f" d="m590.25 501.78h20.987v-6.8602q0-3.3398 1.2637-4.739 1.3089-1.4443 3.385-1.4443t3.3398 1.4443q1.3089 1.3991 1.3089 4.739l-0.0451 16.112h-42.064v-9.2523l28.208-36.197h-17.06v6.6346q0 3.3398-1.2637 4.7841-1.2637 1.3991-3.3398 1.3991t-3.385-1.3991q-1.2637-1.4443-1.2637-4.7841v-15.932l38.273 0.0451v9.0266l-28.344 36.422z"/>
    </g>
   </g>
   <g id="g5041" transform="translate(3.8169 -14.806)">
    <g id="g5043">
     <path id="path5045" fill="#00f" d="m317.37 560.92v29.37h16.187v-7.1045q0-2.71 1.0254-3.8452 1.062-1.1719 2.7466-1.1719 1.648 0 2.6733 1.1719 1.062 1.1352 1.062 3.8452v14.612h-35.559q-2.71 0-3.8818-1.0254-1.1352-1.062-1.1352-2.7466 0-1.648 1.1352-2.6733 1.1719-1.062 3.8818-1.062h4.3579v-29.37h-4.3579q-2.71 0-3.8818-1.0254-1.1352-1.062-1.1352-2.7466t1.1352-2.71q1.1719-1.062 3.8818-1.062l16.26 0.0366q2.71 0 3.8452 1.0254 1.1719 1.0254 1.1719 2.71t-1.1719 2.7466q-1.1352 1.0254-3.8452 1.0254h-4.3945z"/>
    </g>
    <g id="g5047">
     <path id="path5049" fill="#00f" d="m421.1 582.56v7.727h7.5806q2.71 0 3.8452 1.062 1.1719 1.0254 1.1719 2.71 0 1.648-1.1719 2.71-1.1353 1.0254-3.8452 1.0254h-16.26q-2.71 0-3.8818-1.0254-1.1352-1.062-1.1352-2.7466 0-1.648 1.1719-2.6733 1.1719-1.062 3.8452-1.062h1.1719v-29.37h-1.1719q-2.71 0-3.8818-1.0254-1.1352-1.062-1.1352-2.7466t1.1352-2.71q1.1719-1.062 3.8818-1.062l17.285 0.0366q7.6172 0 12.048 4.1748 4.4678 4.1382 4.4678 10.107 0 3.2959-1.5015 6.2256-1.1352 2.1973-3.8086 4.3579-2.6367 2.124-5.4199 3.2226-2.7466 1.062-7.2876 1.062h-7.1045zm0-7.5073h6.958q4.9072 0 7.7637-2.1973 2.8931-2.2339 2.8931-5.3467 0-2.6367-2.3438-4.6142-2.3071-1.9775-6.6284-1.9775h-8.6426v14.136z"/>
    </g>
    <g id="g5051">
     <path id="path5053" fill="#00f" d="m526.27 579.26v11.023h19.153v-4.0649q0-2.71 1.0254-3.8452 1.062-1.1719 2.7466-1.1719 1.648 0 2.6733 1.1719 1.062 1.1352 1.062 3.8452v11.572h-35.339q-2.71 0-3.8818-1.0254-1.1352-1.062-1.1352-2.7466 0-1.648 1.1719-2.6733 1.1719-1.062 3.8452-1.062h1.1719v-29.37h-1.1719q-2.71 0-3.8818-1.0254-1.1352-1.062-1.1352-2.7466t1.1352-2.71q1.1719-1.062 3.8818-1.062l33.691 0.0366v11.426q0 2.6733-1.0254 3.8452-1.0254 1.1352-2.71 1.1352t-2.7466-1.1352q-1.0254-1.1352-1.0254-3.8452v-3.9184h-17.505v10.84h6.5918q0-2.9297 0.54932-3.772 1.1352-1.7944 3.2227-1.7944 1.648 0 2.6733 1.1719 1.062 1.1352 1.062 3.8452v8.6426q0 2.4536-0.58594 3.2959-1.1719 1.7212-3.1494 1.7212-2.0874 0-3.2227-1.7944-0.54932-0.84229-0.54932-3.8086h-6.5918z"/>
    </g>
    <g id="g5055">
     <path id="path5057" fill="#00f" d="m623.93 590.29v-29.37q-2.3804-0.0366-3.5156-1.062-1.1352-1.062-1.1352-2.71 0-1.6846 1.1352-2.71 1.1719-1.062 3.8818-1.062l15.71 0.0366q3.6621 0 7.1411 1.355 3.5156 1.355 5.6396 3.4424 1.6113 1.5747 3.3325 4.3213 1.7578 2.7466 2.6367 5.4565 0.8789 2.71 0.8789 6.6284v3.5889q0 4.7608-1.6113 8.4595-1.6113 3.6621-4.248 6.0059-2.6001 2.3071-4.9072 3.4058-3.6621 1.7212-9.4849 1.7212h-15.088q-2.71 0-3.8818-1.0254-1.1352-1.062-1.1352-2.7466 0-1.648 1.1352-2.71 1.1719-1.062 3.5156-1.0254zm7.5073 0h7.9834q4.4678 0 6.7383-1.2817 2.9663-1.6846 4.4678-4.2847t1.5015-6.7383v-3.5522q0-3.5522-1.355-6.2256-2.124-4.1748-4.7974-5.7129-2.6367-1.5747-6.6284-1.5747h-7.9102v29.37z"/>
    </g>
   </g>
   <g id="g5059" transform="translate(-3.2328 -10.765)">
    <g id="g5061">
     <path id="path5063" fill="#00f" d="m306.06 683.57v7.727h7.5806q2.71 0 3.8452 1.062 1.1719 1.0254 1.1719 2.71 0 1.6479-1.1719 2.71-1.1353 1.0254-3.8452 1.0254h-16.26q-2.71 0-3.8818-1.0254-1.1352-1.062-1.1352-2.7466 0-1.648 1.1719-2.6733 1.1719-1.062 3.8452-1.062h1.1719v-29.37h-1.1719q-2.71 0-3.8818-1.0254-1.1352-1.062-1.1352-2.7466t1.1352-2.71q1.1719-1.062 3.8818-1.062l17.285 0.0366q7.6172 0 12.048 4.1748 4.4678 4.1382 4.4678 10.107 0 3.2959-1.5015 6.2256-1.1352 2.1973-3.8086 4.3579-2.6367 2.124-5.4199 3.2227-2.7466 1.062-7.2876 1.062h-7.1045zm0-7.5073h6.958q4.9072 0 7.7637-2.1973 2.8931-2.2339 2.8931-5.3467 0-2.6367-2.3438-4.6143-2.3071-1.9775-6.6284-1.9775h-8.6426v14.136z"/>
    </g>
    <g id="g5065">
     <path id="path5067" fill="#00f" d="m392.24 680.28v11.023h19.153v-4.0649q0-2.71 1.0254-3.8452 1.062-1.1719 2.7466-1.1719 1.648 0 2.6733 1.1719 1.062 1.1352 1.062 3.8452v11.572h-35.339q-2.71 0-3.8818-1.0254-1.1352-1.062-1.1352-2.7466 0-1.648 1.1719-2.6733 1.1719-1.062 3.8452-1.062h1.1719v-29.37h-1.1719q-2.71 0-3.8818-1.0254-1.1352-1.062-1.1352-2.7466t1.1352-2.71q1.1719-1.062 3.8818-1.062l33.691 0.0366v11.426q0 2.6733-1.0254 3.8452-1.0254 1.1352-2.71 1.1352t-2.7466-1.1352q-1.0254-1.1353-1.0254-3.8452v-3.9184h-17.505v10.84h6.5918q0-2.9297 0.54932-3.772 1.1352-1.7944 3.2227-1.7944 1.6479 0 2.6733 1.1719 1.062 1.1352 1.062 3.8452v8.6426q0 2.4536-0.58594 3.2959-1.1719 1.7212-3.1494 1.7212-2.0874 0-3.2227-1.7944-0.54932-0.84229-0.54932-3.8086h-6.5918z"/>
    </g>
    <g id="g5069">
     <path id="path5071" fill="#00f" d="m498.2 656.33q0.6958-0.95215 1.5015-1.4282 0.84229-0.47608 1.7944-0.47608 1.648 0 2.6733 1.1353 1.062 1.1352 1.062 3.8452v6.3721q0 2.71-1.062 3.8818-1.0254 1.1352-2.6733 1.1352-1.5015 0-2.417-0.84229-0.91552-0.84228-1.355-3.1494-0.25635-1.5381-1.0254-2.3804-1.5015-1.648-4.2114-2.6367-2.6733-0.98877-5.3833-0.98877-3.3691 0-6.189 1.4648-2.8198 1.4648-4.9805 4.7607-2.1606 3.2959-2.1606 7.8369v4.8706q0 5.4199 3.9184 9.0454 3.9551 3.6255 10.95 3.6255 4.1748 0 7.0679-1.1353 1.6846-0.65918 3.5889-2.6001 1.1719-1.1719 1.831-1.5015 0.65918-0.36621 1.5015-0.36621 1.5015 0 2.6367 1.1352 1.1352 1.1353 1.1352 2.6733 0 1.5381-1.5381 3.2959-2.2339 2.5635-5.7495 4.0283-4.7241 1.9775-10.437 1.9775-6.665 0-12.012-2.7466-4.3213-2.1973-7.3608-6.9214-3.0396-4.7607-3.0396-10.364v-5.0903q0-5.8594 2.71-10.913 2.7466-5.0903 7.5806-7.8369t10.254-2.7466q3.2593 0 6.0791 0.76904 2.8564 0.73242 5.3101 2.2705z"/>
    </g>
    <g id="g5073">
     <path id="path5075" fill="#00f" d="m567.47 680.32v10.986h7.6904q2.71 0 3.8452 1.062 1.1719 1.0254 1.1719 2.71 0 1.6479-1.1719 2.71-1.1352 1.0254-3.8452 1.0254h-16.37q-2.71 0-3.8818-1.0254-1.1353-1.062-1.1353-2.7466 0-1.648 1.1719-2.6733 1.1719-1.062 3.8452-1.062h1.1719v-29.37h-1.1719q-2.71 0-3.8818-1.0254-1.1353-1.062-1.1353-2.7466t1.1353-2.71q1.1719-1.062 3.8818-1.062l35.339 0.0366v11.462q0 2.6733-1.062 3.8452-1.0254 1.1352-2.71 1.1352-1.648 0-2.71-1.1352-1.0254-1.1353-1.0254-3.8452v-3.9551h-19.153v10.876h6.5918q0-2.9297 0.54931-3.772 1.1353-1.7944 3.2227-1.7944 1.648 0 2.6733 1.1719 1.062 1.1352 1.062 3.8452v8.6426q0 2.71-1.062 3.8818-1.0254 1.1352-2.71 1.1352-2.0508 0-3.186-1.7944-0.54931-0.84229-0.54931-3.8086h-6.5918z"/>
    </g>
    <g id="g5077">
     <path id="path5079" fill="#00f" d="m646.15 691.3v-29.37q-2.3804-0.0366-3.5156-1.062-1.1352-1.062-1.1352-2.71 0-1.6846 1.1352-2.71 1.1719-1.062 3.8818-1.062l15.71 0.0366q3.6621 0 7.1411 1.355 3.5156 1.355 5.6396 3.4424 1.6113 1.5747 3.3325 4.3213 1.7578 2.7466 2.6367 5.4566t0.8789 6.6284v3.5889q0 4.7607-1.6113 8.4595-1.6113 3.6621-4.248 6.0059-2.6001 2.3071-4.9072 3.4058-3.6621 1.7212-9.4849 1.7212h-15.088q-2.71 0-3.8818-1.0254-1.1352-1.062-1.1352-2.7466 0-1.648 1.1352-2.71 1.1719-1.062 3.5156-1.0254zm7.5073 0h7.9834q4.4678 0 6.7383-1.2817 2.9663-1.6846 4.4678-4.2847t1.5015-6.7383v-3.5522q0-3.5522-1.355-6.2256-2.124-4.1748-4.7974-5.7129-2.6367-1.5747-6.6284-1.5747h-7.9102v29.37z"/>
    </g>
   </g>
  </g>
  <g id="g4578" transform="translate(-112.21 100.29)">
   <g id="text4319">
    <path id="path4615" d="m467.91 205.82v27.142h47.161v-10.009q0-6.6729 2.5249-9.4683 2.6151-2.8856 6.7631-2.8856 4.0578 0 6.5827 2.8856 2.615 2.7954 2.615 9.4683v28.495h-87.018q-6.6729 0-9.5585-2.5249-2.7954-2.615-2.7954-6.7631 0-4.0578 2.8856-6.5827 2.8856-2.615 9.4683-2.615h2.8856v-72.32h-2.8856q-6.6729 0-9.5585-2.5249-2.7954-2.615-2.7954-6.7631 0-4.148 2.7954-6.6729 2.8856-2.6151 9.5585-2.6151l82.96 0.0902v28.134q0 6.5827-2.5249 9.4683-2.5249 2.7954-6.6729 2.7954t-6.7631-2.7954q-2.5249-2.7954-2.5249-9.4683v-9.6486h-43.103v26.692h16.231q0-7.214 1.3526-9.288 2.7954-4.4185 7.9353-4.4185 4.0578 0 6.5827 2.8856 2.615 2.7954 2.615 9.4683v21.281q0 6.0417-1.4428 8.1157-2.8856 4.2382-7.755 4.2382-5.1399 0-7.9353-4.4185-1.3526-2.074-1.3526-9.3781h-16.231z"/>
   </g>
   <g id="g4347" transform="translate(-6.5477 -30.968)">
    <g id="text4323">
     <path id="path4618" d="m402.06 394.29v19.963h13.974q4.9242 0 6.987 1.9298 2.1294 1.8632 2.1294 4.9242 0 2.9944-2.1294 4.9242-2.0628 1.8632-6.987 1.8632h-29.745q-4.9242 0-7.0536-1.8632-2.0628-1.9298-2.0628-4.9907 0-2.9944 2.1294-4.8576 2.1294-1.9298 6.987-1.9298h2.1294v-53.368h-2.1294q-4.9242 0-7.0536-1.8632-2.0628-1.9298-2.0628-4.9907 0-3.061 2.0628-4.9242 2.1294-1.9298 7.0536-1.9298l64.214 0.0665v20.828q0 4.8577-1.9298 6.987-1.8632 2.0628-4.9242 2.0628-2.9944 0-4.9242-2.0628-1.8632-2.0628-1.8632-6.987v-7.1867h-34.802v19.763h11.978q0-5.3234 0.99815-6.8539 2.0628-3.2606 5.8558-3.2606 2.9944 0 4.8576 2.1294 1.9298 2.0628 1.9298 6.987v15.704q0 4.9242-1.9298 7.0536-1.8632 2.0628-4.9242 2.0628-3.7264 0-5.7893-3.2606-0.99815-1.5305-0.99815-6.9205h-11.978z"/>
    </g>
    <g id="text4327">
     <path id="path4621" d="m558.03 400.22v14.041h13.774q4.9242 0 6.987 1.9298 2.1294 1.8632 2.1294 4.9242 0 2.9944-2.1294 4.9242-2.0628 1.8632-6.987 1.8632h-29.545q-4.9242 0-7.0536-1.8632-2.0628-1.9298-2.0628-4.9907 0-2.9944 2.1294-4.8576 2.1294-1.9298 6.987-1.9298h2.1294v-53.368h-2.1294q-4.9242 0-7.0536-1.8632-2.0628-1.9298-2.0628-4.9907 0-3.061 2.0628-4.9242 2.1294-1.9298 7.0536-1.9298l31.408 0.0665q13.841 0 21.893 7.5859 8.1183 7.5194 8.1183 18.366 0 5.9889-2.7283 11.312-2.0628 3.9926-6.9205 7.9186-4.7911 3.8595-9.8484 5.8558-4.9907 1.9298-13.242 1.9298h-12.909zm0-13.641h12.643q8.9168 0 14.107-3.9926 5.2569-4.0591 5.2569-9.7153 0-4.7911-4.2588-8.3844-4.1922-3.5933-12.044-3.5933h-15.704v25.686z"/>
    </g>
   </g>
   <g id="g4353" transform="translate(7.9566 -12.785)">
    <g id="text4331">
     <path id="path4624" d="m359.83 465.58v36.197h6.2284q3.3398 0 4.739 1.3088 1.4442 1.2637 1.4442 3.3398 0 2.031-1.4442 3.3398-1.3991 1.2637-4.739 1.2637h-21.664q-3.3398 0-4.7841-1.2637-1.3991-1.3089-1.3991-3.385 0-2.031 1.3991-3.2947 1.4442-1.3088 4.7841-1.3088h6.1832v-36.197h-10.02v8.7558q0 3.3398-1.3089 4.7841-1.2637 1.3991-3.3398 1.3991-2.031 0-3.3398-1.3991-1.2637-1.4443-1.2637-4.7841v-18.053l47.931 0.0451v18.008q0 3.3398-1.3089 4.7841-1.2637 1.3991-3.3398 1.3991-2.031 0-3.3398-1.3991-1.2637-1.4443-1.2637-4.7841v-8.7558h-10.155z"/>
    </g>
    <g id="text4335">
     <path id="path4627" d="m504.76 483.68q0 12.321-7.8531 20.536-7.808 8.1691-18.098 8.1691-9.2523 0-16.699-6.8151-9.2071-8.4399-9.2071-21.89t9.2071-21.935q7.447-6.8151 16.699-6.8151 10.29 0 18.098 8.2142 7.8531 8.1691 7.8531 20.536zm-9.2523 0q0-8.4399-5.1-13.946-5.1-5.5514-11.599-5.5514-6.454 0-11.554 5.5514t-5.1 13.946q0 8.3948 5.1 13.946 5.1 5.5062 11.554 5.5062 6.4992 0 11.599-5.5062 5.1-5.5062 5.1-13.946z"/>
    </g>
    <g id="text4339">
     <path id="path4630" d="m590.25 501.78h20.987v-6.8602q0-3.3398 1.2637-4.739 1.3089-1.4443 3.385-1.4443t3.3398 1.4443q1.3089 1.3991 1.3089 4.739l-0.0451 16.112h-42.064v-9.2523l28.208-36.197h-17.06v6.6346q0 3.3398-1.2637 4.7841-1.2637 1.3991-3.3398 1.3991t-3.385-1.3991q-1.2637-1.4443-1.2637-4.7841v-15.932l38.273 0.0451v9.0266l-28.344 36.422z"/>
    </g>
   </g>
   <g id="g4417" transform="translate(3.8169 -14.806)">
    <g id="text4369">
     <path id="path4633" d="m317.37 560.92v29.37h16.187v-7.1045q0-2.71 1.0254-3.8452 1.062-1.1719 2.7466-1.1719 1.648 0 2.6733 1.1719 1.062 1.1352 1.062 3.8452v14.612h-35.559q-2.71 0-3.8818-1.0254-1.1352-1.062-1.1352-2.7466 0-1.648 1.1352-2.6733 1.1719-1.062 3.8818-1.062h4.3579v-29.37h-4.3579q-2.71 0-3.8818-1.0254-1.1352-1.062-1.1352-2.7466t1.1352-2.71q1.1719-1.062 3.8818-1.062l16.26 0.0366q2.71 0 3.8452 1.0254 1.1719 1.0254 1.1719 2.71t-1.1719 2.7466q-1.1352 1.0254-3.8452 1.0254h-4.3945z"/>
    </g>
    <g id="text4373">
     <path id="path4636" d="m421.1 582.56v7.727h7.5806q2.71 0 3.8452 1.062 1.1719 1.0254 1.1719 2.71 0 1.648-1.1719 2.71-1.1353 1.0254-3.8452 1.0254h-16.26q-2.71 0-3.8818-1.0254-1.1352-1.062-1.1352-2.7466 0-1.648 1.1719-2.6733 1.1719-1.062 3.8452-1.062h1.1719v-29.37h-1.1719q-2.71 0-3.8818-1.0254-1.1352-1.062-1.1352-2.7466t1.1352-2.71q1.1719-1.062 3.8818-1.062l17.285 0.0366q7.6172 0 12.048 4.1748 4.4678 4.1382 4.4678 10.107 0 3.2959-1.5015 6.2256-1.1352 2.1973-3.8086 4.3579-2.6367 2.124-5.4199 3.2226-2.7466 1.062-7.2876 1.062h-7.1045zm0-7.5073h6.958q4.9072 0 7.7637-2.1973 2.8931-2.2339 2.8931-5.3467 0-2.6367-2.3438-4.6142-2.3071-1.9775-6.6284-1.9775h-8.6426v14.136z"/>
    </g>
    <g id="text4377">
     <path id="path4639" d="m526.27 579.26v11.023h19.153v-4.0649q0-2.71 1.0254-3.8452 1.062-1.1719 2.7466-1.1719 1.648 0 2.6733 1.1719 1.062 1.1352 1.062 3.8452v11.572h-35.339q-2.71 0-3.8818-1.0254-1.1352-1.062-1.1352-2.7466 0-1.648 1.1719-2.6733 1.1719-1.062 3.8452-1.062h1.1719v-29.37h-1.1719q-2.71 0-3.8818-1.0254-1.1352-1.062-1.1352-2.7466t1.1352-2.71q1.1719-1.062 3.8818-1.062l33.691 0.0366v11.426q0 2.6733-1.0254 3.8452-1.0254 1.1352-2.71 1.1352t-2.7466-1.1352q-1.0254-1.1352-1.0254-3.8452v-3.9184h-17.505v10.84h6.5918q0-2.9297 0.54932-3.772 1.1352-1.7944 3.2227-1.7944 1.648 0 2.6733 1.1719 1.062 1.1352 1.062 3.8452v8.6426q0 2.4536-0.58594 3.2959-1.1719 1.7212-3.1494 1.7212-2.0874 0-3.2227-1.7944-0.54932-0.84229-0.54932-3.8086h-6.5918z"/>
    </g>
    <g id="text4381">
     <path id="path4642" d="m623.93 590.29v-29.37q-2.3804-0.0366-3.5156-1.062-1.1352-1.062-1.1352-2.71 0-1.6846 1.1352-2.71 1.1719-1.062 3.8818-1.062l15.71 0.0366q3.6621 0 7.1411 1.355 3.5156 1.355 5.6396 3.4424 1.6113 1.5747 3.3325 4.3213 1.7578 2.7466 2.6367 5.4565 0.8789 2.71 0.8789 6.6284v3.5889q0 4.7608-1.6113 8.4595-1.6113 3.6621-4.248 6.0059-2.6001 2.3071-4.9072 3.4058-3.6621 1.7212-9.4849 1.7212h-15.088q-2.71 0-3.8818-1.0254-1.1352-1.062-1.1352-2.7466 0-1.648 1.1352-2.71 1.1719-1.062 3.5156-1.0254zm7.5073 0h7.9834q4.4678 0 6.7383-1.2817 2.9663-1.6846 4.4678-4.2847t1.5015-6.7383v-3.5522q0-3.5522-1.355-6.2256-2.124-4.1748-4.7974-5.7129-2.6367-1.5747-6.6284-1.5747h-7.9102v29.37z"/>
    </g>
   </g>
   <g id="g4405" transform="translate(-3.2328 -10.765)">
    <g id="text4385">
     <path id="path4645" d="m306.06 683.57v7.727h7.5806q2.71 0 3.8452 1.062 1.1719 1.0254 1.1719 2.71 0 1.6479-1.1719 2.71-1.1353 1.0254-3.8452 1.0254h-16.26q-2.71 0-3.8818-1.0254-1.1352-1.062-1.1352-2.7466 0-1.648 1.1719-2.6733 1.1719-1.062 3.8452-1.062h1.1719v-29.37h-1.1719q-2.71 0-3.8818-1.0254-1.1352-1.062-1.1352-2.7466t1.1352-2.71q1.1719-1.062 3.8818-1.062l17.285 0.0366q7.6172 0 12.048 4.1748 4.4678 4.1382 4.4678 10.107 0 3.2959-1.5015 6.2256-1.1352 2.1973-3.8086 4.3579-2.6367 2.124-5.4199 3.2227-2.7466 1.062-7.2876 1.062h-7.1045zm0-7.5073h6.958q4.9072 0 7.7637-2.1973 2.8931-2.2339 2.8931-5.3467 0-2.6367-2.3438-4.6143-2.3071-1.9775-6.6284-1.9775h-8.6426v14.136z"/>
    </g>
    <g id="text4389">
     <path id="path4648" d="m392.24 680.28v11.023h19.153v-4.0649q0-2.71 1.0254-3.8452 1.062-1.1719 2.7466-1.1719 1.648 0 2.6733 1.1719 1.062 1.1352 1.062 3.8452v11.572h-35.339q-2.71 0-3.8818-1.0254-1.1352-1.062-1.1352-2.7466 0-1.648 1.1719-2.6733 1.1719-1.062 3.8452-1.062h1.1719v-29.37h-1.1719q-2.71 0-3.8818-1.0254-1.1352-1.062-1.1352-2.7466t1.1352-2.71q1.1719-1.062 3.8818-1.062l33.691 0.0366v11.426q0 2.6733-1.0254 3.8452-1.0254 1.1352-2.71 1.1352t-2.7466-1.1352q-1.0254-1.1353-1.0254-3.8452v-3.9184h-17.505v10.84h6.5918q0-2.9297 0.54932-3.772 1.1352-1.7944 3.2227-1.7944 1.6479 0 2.6733 1.1719 1.062 1.1352 1.062 3.8452v8.6426q0 2.4536-0.58594 3.2959-1.1719 1.7212-3.1494 1.7212-2.0874 0-3.2227-1.7944-0.54932-0.84229-0.54932-3.8086h-6.5918z"/>
    </g>
    <g id="text4393">
     <path id="path4651" d="m498.2 656.33q0.6958-0.95215 1.5015-1.4282 0.84229-0.47608 1.7944-0.47608 1.648 0 2.6733 1.1353 1.062 1.1352 1.062 3.8452v6.3721q0 2.71-1.062 3.8818-1.0254 1.1352-2.6733 1.1352-1.5015 0-2.417-0.84229-0.91552-0.84228-1.355-3.1494-0.25635-1.5381-1.0254-2.3804-1.5015-1.648-4.2114-2.6367-2.6733-0.98877-5.3833-0.98877-3.3691 0-6.189 1.4648-2.8198 1.4648-4.9805 4.7607-2.1606 3.2959-2.1606 7.8369v4.8706q0 5.4199 3.9184 9.0454 3.9551 3.6255 10.95 3.6255 4.1748 0 7.0679-1.1353 1.6846-0.65918 3.5889-2.6001 1.1719-1.1719 1.831-1.5015 0.65918-0.36621 1.5015-0.36621 1.5015 0 2.6367 1.1352 1.1352 1.1353 1.1352 2.6733 0 1.5381-1.5381 3.2959-2.2339 2.5635-5.7495 4.0283-4.7241 1.9775-10.437 1.9775-6.665 0-12.012-2.7466-4.3213-2.1973-7.3608-6.9214-3.0396-4.7607-3.0396-10.364v-5.0903q0-5.8594 2.71-10.913 2.7466-5.0903 7.5806-7.8369t10.254-2.7466q3.2593 0 6.0791 0.76904 2.8564 0.73242 5.3101 2.2705z"/>
    </g>
    <g id="text4397">
     <path id="path4654" d="m567.47 680.32v10.986h7.6904q2.71 0 3.8452 1.062 1.1719 1.0254 1.1719 2.71 0 1.6479-1.1719 2.71-1.1352 1.0254-3.8452 1.0254h-16.37q-2.71 0-3.8818-1.0254-1.1353-1.062-1.1353-2.7466 0-1.648 1.1719-2.6733 1.1719-1.062 3.8452-1.062h1.1719v-29.37h-1.1719q-2.71 0-3.8818-1.0254-1.1353-1.062-1.1353-2.7466t1.1353-2.71q1.1719-1.062 3.8818-1.062l35.339 0.0366v11.462q0 2.6733-1.062 3.8452-1.0254 1.1352-2.71 1.1352-1.648 0-2.71-1.1352-1.0254-1.1353-1.0254-3.8452v-3.9551h-19.153v10.876h6.5918q0-2.9297 0.54931-3.772 1.1353-1.7944 3.2227-1.7944 1.648 0 2.6733 1.1719 1.062 1.1352 1.062 3.8452v8.6426q0 2.71-1.062 3.8818-1.0254 1.1352-2.71 1.1352-2.0508 0-3.186-1.7944-0.54931-0.84229-0.54931-3.8086h-6.5918z"/>
    </g>
    <g id="text4401">
     <path id="path4657" d="m646.15 691.3v-29.37q-2.3804-0.0366-3.5156-1.062-1.1352-1.062-1.1352-2.71 0-1.6846 1.1352-2.71 1.1719-1.062 3.8818-1.062l15.71 0.0366q3.6621 0 7.1411 1.355 3.5156 1.355 5.6396 3.4424 1.6113 1.5747 3.3325 4.3213 1.7578 2.7466 2.6367 5.4566t0.8789 6.6284v3.5889q0 4.7607-1.6113 8.4595-1.6113 3.6621-4.248 6.0059-2.6001 2.3071-4.9072 3.4058-3.6621 1.7212-9.4849 1.7212h-15.088q-2.71 0-3.8818-1.0254-1.1352-1.062-1.1352-2.7466 0-1.648 1.1352-2.71 1.1719-1.062 3.5156-1.0254zm7.5073 0h7.9834q4.4678 0 6.7383-1.2817 2.9663-1.6846 4.4678-4.2847t1.5015-6.7383v-3.5522q0-3.5522-1.355-6.2256-2.124-4.1748-4.7974-5.7129-2.6367-1.5747-6.6284-1.5747h-7.9102v29.37z"/>
    </g>
   </g>
  </g>
 </g>
</svg>
